<?xml version="1.0" standalone="no"?><!DOCTYPE svg PUBLIC "-//W3C//DTD SVG 1.1//EN" "http://www.w3.org/Graphics/SVG/1.1/DTD/svg11.dtd"><svg t="1563623312180" class="icon" viewBox="0 0 1024 1024" version="1.1" xmlns="http://www.w3.org/2000/svg" p-id="16949" xmlns:xlink="http://www.w3.org/1999/xlink" width="128" height="128"><defs><style type="text/css"></style></defs><path d="M409.6 81.92a40.96 40.96 0 0 1 40.96 40.96v286.72a40.96 40.96 0 0 1-40.96 40.96H122.88a40.96 40.96 0 0 1-40.96-40.96V122.88a40.96 40.96 0 0 1 40.96-40.96h286.72m0-40.96H122.88a81.92 81.92 0 0 0-81.92 81.92v286.72a81.92 81.92 0 0 0 81.92 81.92h286.72a81.92 81.92 0 0 0 81.92-81.92V122.88a81.92 81.92 0 0 0-81.92-81.92zM409.6 573.44a40.96 40.96 0 0 1 40.96 40.96v286.72a40.96 40.96 0 0 1-40.96 40.96H122.88a40.96 40.96 0 0 1-40.96-40.96v-286.72a40.96 40.96 0 0 1 40.96-40.96h286.72m0-40.96H122.88a81.92 81.92 0 0 0-81.92 81.92v286.72a81.92 81.92 0 0 0 81.92 81.92h286.72a81.92 81.92 0 0 0 81.92-81.92v-286.72a81.92 81.92 0 0 0-81.92-81.92zM901.12 81.92a40.96 40.96 0 0 1 40.96 40.96v286.72a40.96 40.96 0 0 1-40.96 40.96h-286.72a40.96 40.96 0 0 1-40.96-40.96V122.88a40.96 40.96 0 0 1 40.96-40.96h286.72m0-40.96h-286.72a81.92 81.92 0 0 0-81.92 81.92v286.72a81.92 81.92 0 0 0 81.92 81.92h286.72a81.92 81.92 0 0 0 81.92-81.92V122.88a81.92 81.92 0 0 0-81.92-81.92z" fill="#32383E" p-id="16950"></path><path d="M819.2 573.44v40.96h-122.88v-40.96h122.88m0-40.96h-122.88a40.96 40.96 0 0 0-40.96 40.96v81.92h204.8v-81.92a40.96 40.96 0 0 0-40.96-40.96z" fill="#227CE0" p-id="16951"></path><path d="M962.56 614.4h-409.6a20.48 20.48 0 0 0 0 40.96h409.6a20.48 20.48 0 0 0 0-40.96z" fill="#227CE0" p-id="16952"></path><path d="M860.16 655.36v286.72h-204.8v-286.72h204.8m40.96-40.96h-286.72v327.68a40.96 40.96 0 0 0 40.96 40.96h204.8a40.96 40.96 0 0 0 40.96-40.96v-327.68z" fill="#227CE0" p-id="16953"></path><path d="M778.24 655.36h-40.96v286.72h40.96v-286.72z" fill="#227CE0" p-id="16954"></path></svg>