<?xml version="1.0" standalone="no"?><!DOCTYPE svg PUBLIC "-//W3C//DTD SVG 1.1//EN" "http://www.w3.org/Graphics/SVG/1.1/DTD/svg11.dtd"><svg t="1563443633975" class="icon" viewBox="0 0 1024 1024" version="1.1" xmlns="http://www.w3.org/2000/svg" p-id="8335" xmlns:xlink="http://www.w3.org/1999/xlink" width="128" height="128"><defs><style type="text/css"></style></defs><path d="M512 512m-512 0a512 512 0 1 0 1024 0 512 512 0 1 0-1024 0Z" fill="#EBC04C" p-id="8336"></path><path d="M588.8 457.6c-9.6-9.6-25.6-9.6-32 0-9.6 9.6-9.6 22.4-3.2 32l6.4 6.4 6.4 6.4 3.2 3.2c25.6 25.6 16 67.2-6.4 92.8L454.4 704c-25.6 25.6-67.2 25.6-89.6 0h-6.4c-25.6-25.6-25.6-67.2 0-92.8l48-48c9.6-6.4 12.8-19.2 9.6-28.8-3.2-9.6-12.8-19.2-25.6-19.2-6.4 0-9.6 3.2-16 3.2l-6.4 6.4-48 48c-44.8 48-44.8 121.6 0 169.6l3.2 3.2c44.8 44.8 121.6 44.8 166.4 0l105.6-108.8c44.8-44.8 51.2-118.4 3.2-166.4l-3.2-3.2c0-3.2-3.2-6.4-6.4-9.6z" fill="#FFFFFF" p-id="8337"></path><path d="M742.4 300.8c-48-44.8-121.6-44.8-169.6 0l-105.6 105.6c-48 41.6-51.2 105.6-3.2 153.6l3.2 3.2 6.4 6.4c3.2 3.2 3.2 3.2 6.4 3.2 9.6 6.4 19.2 3.2 25.6-3.2 6.4-6.4 9.6-16 6.4-25.6-3.2-6.4-9.6-9.6-12.8-12.8l-3.2-3.2c-25.6-25.6-16-60.8 9.6-83.2l105.6-102.4c25.6-25.6 67.2-25.6 89.6 0l3.2 3.2c25.6 25.6 25.6 64 0 89.6L656 480c-12.8 6.4-16 22.4-6.4 35.2 9.6 12.8 25.6 16 35.2 6.4 3.2-3.2 6.4-3.2 6.4-6.4l51.2-44.8c48-51.2 48-124.8 0-169.6z" fill="#FFFFFF" p-id="8338"></path></svg>