<?xml version="1.0" standalone="no"?><!DOCTYPE svg PUBLIC "-//W3C//DTD SVG 1.1//EN" "http://www.w3.org/Graphics/SVG/1.1/DTD/svg11.dtd"><svg t="1563596748031" class="icon" viewBox="0 0 1024 1024" version="1.1" xmlns="http://www.w3.org/2000/svg" p-id="3184" xmlns:xlink="http://www.w3.org/1999/xlink" width="128" height="128"><defs><style type="text/css"></style></defs><path d="M825.213585 0.000167h-626.427304A96.636852 96.636852 0 0 0 102.734095 96.052354v831.895459a96.636852 96.636852 0 0 0 96.052186 96.052187 29.984987 29.984987 0 0 0 9.187601-1.670473l304.026051-125.285461 304.026052 125.285461a35.497547 35.497547 0 0 0 9.1876 1.670473A96.636852 96.636852 0 0 0 921.265772 927.947813V95.217117A95.885139 95.885139 0 0 0 825.213585 0.000167z m-35.079929 432.652458L674.035796 545.40954l27.562801 159.530153a29.984987 29.984987 0 0 1-12.528546 30.903747 31.822507 31.822507 0 0 1-18.375201 5.846655 32.741267 32.741267 0 0 1-15.034255-3.340946l-143.660662-75.171276-143.660661 75.171276a31.65546 31.65546 0 0 1-45.938003-33.409456l27.562802-159.530153-116.097861-112.756915a33.409456 33.409456 0 0 1-8.352364-32.57422 30.569652 30.569652 0 0 1 25.892329-21.716146L411.771565 354.975639l71.83033-145.331134a31.738983 31.738983 0 0 1 56.796076 0L612.228302 354.975639l160.36539 23.38662a32.741267 32.741267 0 0 1 25.892328 21.716146 29.984987 29.984987 0 0 1-8.352364 32.57422z" p-id="3185" fill="#1296db"></path></svg>