<?xml version="1.0" standalone="no"?><!DOCTYPE svg PUBLIC "-//W3C//DTD SVG 1.1//EN" "http://www.w3.org/Graphics/SVG/1.1/DTD/svg11.dtd"><svg t="1563443518880" class="icon" viewBox="0 0 1024 1024" version="1.1" xmlns="http://www.w3.org/2000/svg" p-id="4962" width="128" height="128" xmlns:xlink="http://www.w3.org/1999/xlink"><defs><style type="text/css"></style></defs><path d="M512 512m-384 0a384 384 0 1 0 768 0 384 384 0 1 0-768 0Z" fill="#3D5259" p-id="4963"></path><path d="M1024 624.64l-42.666667-25.173333c-30.72-19.2-38.4-24.746667-38.4-27.306667a465.92 465.92 0 0 0 0-120.32c0-3.84 0-5.12 37.973334-28.16L1024 398.506667a317.866667 317.866667 0 0 0-25.6-85.333334 587.52 587.52 0 0 0-42.666667-81.493333s-20.906667 4.266667-46.506666 10.666667l-46.08 10.666666-4.693334-5.546666A458.24 458.24 0 0 0 783.786667 170.666667a140.8 140.8 0 0 1-11.093334-9.813334s4.266667-20.48 9.813334-42.666666 10.24-45.226667 10.24-46.506667a334.933333 334.933333 0 0 0-80.213334-42.666667 325.973333 325.973333 0 0 0-85.333333-25.6l-25.173333 42.666667a218.453333 218.453333 0 0 1-26.026667 37.973333s-15.36 0-31.573333-2.56a324.693333 324.693333 0 0 0-57.6 0l-32.426667 2.56c-3.84 0-5.546667 0-28.16-37.973333L398.933333 0a384 384 0 0 0-85.333333 25.173333 341.333333 341.333333 0 0 0-82.773333 42.666667s4.693333 21.76 10.24 45.226667 10.24 42.666667 10.24 42.666666a55.466667 55.466667 0 0 1-13.226667 14.933334 527.786667 527.786667 0 0 0-65.28 67.413333 47.786667 47.786667 0 0 1-12.373333 12.8l-46.506667-10.24-42.666667-9.813333-2.56 3.413333A520.533333 520.533333 0 0 0 36.266667 290.133333a586.666667 586.666667 0 0 0-29.866667 82.773334C2.986667 384 0 396.373333 0 397.226667s17.92 12.373333 40.106667 26.026666l40.106666 24.746667v9.813333a442.026667 442.026667 0 0 0 0 109.226667v8.96l-31.573333 21.333333-40.106667 25.173334-8.533333 3.84 5.12 20.053333a535.04 535.04 0 0 0 29.013333 82.346667 433.493333 433.493333 0 0 0 33.706667 61.866666l2.986667 3.84 45.653333-10.666666 45.653333-11.093334 3.84 5.12A469.333333 469.333333 0 0 0 239.786667 853.333333c8.533333 6.826667 12.8 11.52 12.373333 12.8s-19.626667 85.333333-19.626667 88.746667a355.413333 355.413333 0 0 0 85.333334 45.653333 538.453333 538.453333 0 0 0 78.506666 23.466667c2.56 0 8.96-8.96 28.16-40.106667l25.173334-40.106666h7.253333a456.533333 456.533333 0 0 0 55.04 4.266666 482.986667 482.986667 0 0 0 55.466667-3.84h9.386666l23.466667 37.546667c12.373333 20.48 23.893333 38.826667 25.173333 40.106667s2.56 2.986667 20.48-2.133334a584.106667 584.106667 0 0 0 79.36-28.586666 352.426667 352.426667 0 0 0 67.84-37.12s-4.693333-21.76-10.666666-46.506667l-10.666667-45.226667 15.786667-12.8a501.76 501.76 0 0 0 61.866666-62.293333 61.013333 61.013333 0 0 1 14.08-14.506667l46.08 10.24 42.666667 10.24a384 384 0 0 0 29.013333-52.053333 522.666667 522.666667 0 0 0 34.56-91.733333c8.106667-17.92 8.106667-23.893333 8.106667-24.746667z m-192.853333 46.506667a356.266667 356.266667 0 0 1-279.04 194.133333 461.226667 461.226667 0 0 1-85.333334 0 352.426667 352.426667 0 0 1-272.213333-195.413333A330.24 330.24 0 0 1 157.866667 512a326.4 326.4 0 0 1 36.266666-157.013333 326.4 326.4 0 0 1 64.853334-92.16 353.706667 353.706667 0 0 1 213.333333-104.533334 512 512 0 0 1 96 0A360.96 360.96 0 0 1 810.666667 317.866667a400.64 400.64 0 0 1 47.786666 113.066666 359.253333 359.253333 0 0 1-28.16 240.213334z" fill="#B4CCE7" p-id="4964"></path><path d="M694.613333 764.586667c3.413333-3.413333 2.986667-3.84-26.453333-32s-29.866667-29.866667-29.866667-34.133334 4.266667-8.96 24.746667-28.586666c32.853333-32 28.16-32 66.133333 4.693333 29.44 28.16 29.866667 28.586667 32.853334 24.746667s3.413333-3.84-5.12-34.56l-8.533334-31.573334-17.066666-16.64-17.066667-16.64-31.573333-7.253333-32-7.253333-101.973334-97.706667-101.973333-97.706667-5.546667-23.466666c-11.093333-42.666667-8.96-39.253333-28.586666-56.746667l-17.493334-15.36-32-8.96c-31.573333-8.106667-32-8.533333-35.413333-5.12s-3.413333 3.84 26.453333 32.426667 29.866667 28.586667 29.866667 33.706666-4.693333 9.386667-25.6 29.44-26.453333 24.746667-29.866667 24.746667-11.52-6.826667-34.133333-28.586667c-29.44-28.586667-33.28-31.146667-36.266667-23.893333a160.426667 160.426667 0 0 0 7.253334 34.133333l8.533333 31.573334 17.066667 16.213333 17.066666 16.64 32.426667 7.253333 32.426667 7.253334 101.12 98.133333 101.546666 98.133333 7.253334 31.146667 7.68 31.146667 17.92 15.786666 17.92 15.786667 30.293333 8.533333 32.853333 8.106667a9.386667 9.386667 0 0 0 5.12-3.413333z" fill="#B4CCE7" p-id="4965"></path><path d="M362.24 743.68c10.666667-4.266667 18.346667-11.093333 76.8-67.413333l64.853333-62.72-10.666666-10.24-10.24-10.24-27.306667 25.6c-24.32 23.466667-27.306667 25.6-33.28 25.6a10.24 10.24 0 0 1-9.813333-4.266667c-8.106667-9.386667-5.973333-12.8 24.746666-42.666667l24.746667-24.32-11.093333-10.666666-11.093334-10.24-28.16 25.6c-29.866667 27.733333-33.28 29.44-42.666666 21.76a12.8 12.8 0 0 1-3.84-9.813334c0-5.546667 2.56-8.533333 26.453333-32l26.88-26.026666-10.666667-9.813334-9.813333-9.813333-64.426667 61.013333C263.68 640 261.12 644.266667 256 666.88a48.64 48.64 0 0 0 10.24 42.666667 190.293333 190.293333 0 0 0 36.266667 33.706666 62.293333 62.293333 0 0 0 58.88 2.133334zM569.173333 448.853333L507.733333 390.4l-8.533333 8.106667-8.533333 8.106666 61.013333 58.88 61.013333 58.88 8.96-8.96 8.96-8.533333-61.44-58.026667zM643.413333 404.48l42.666667-42.666667 21.333333-6.826666 20.906667-6.4 18.773333-26.026667c10.24-14.506667 18.773333-26.88 19.2-28.16a114.346667 114.346667 0 0 0-19.2-19.2L729.6 256l-27.733333 19.2-27.306667 18.773333-6.826667 18.773334-6.826666 19.2-46.933334 42.666666-46.506666 47.36 13.653333 13.226667a82.346667 82.346667 0 0 0 15.786667 13.653333s22.186667-20.053333 46.506666-42.666666z" fill="#B4CCE7" p-id="4966"></path></svg>