<?xml version="1.0" standalone="no"?><!DOCTYPE svg PUBLIC "-//W3C//DTD SVG 1.1//EN" "http://www.w3.org/Graphics/SVG/1.1/DTD/svg11.dtd"><svg t="1563014694707" class="icon" viewBox="0 0 1024 1024" version="1.1" xmlns="http://www.w3.org/2000/svg" p-id="15111" xmlns:xlink="http://www.w3.org/1999/xlink" width="128" height="128"><defs><style type="text/css"></style></defs><path d="M511.951127 0C229.144452 0 0.001093 229.243291 0.001093 511.950034s229.143359 511.950034 511.950034 511.950034S1023.901161 794.756709 1023.901161 511.950034 794.657871 0 511.951127 0z m342.665756 484.268957l-80.644872 78.646238c-19.586611 19.186884-28.580463 46.668098-23.983605 73.749585l18.987021 111.024105c11.692007 68.053479-59.759149 119.918025-120.917342 87.839953L548.426193 783.164634a83.151158 83.151158 0 0 0-77.546989 0L371.347243 835.428906c-61.158193 32.178003-132.509417-19.786474-120.917342-87.839953l18.987021-111.024105c4.596858-26.981556-4.297063-54.562701-23.983605-73.749585l-80.644872-78.646238c-49.466185-48.167073-22.184835-132.209622 46.16844-142.102859L322.380716 325.877232c27.181419-3.897336 50.565434-20.985654 62.7571-45.568849l49.865912-100.931004c30.579096-61.957646 118.818776-61.957646 149.397872 0l49.865912 100.931004c12.091734 24.583195 35.575681 41.671514 62.7571 45.568849l111.423831 16.188934c68.353274 10.0931 95.634625 94.035718 46.16844 142.202791z" p-id="15112" fill="#1296db"></path></svg>