<?xml version="1.0" standalone="no"?><!DOCTYPE svg PUBLIC "-//W3C//DTD SVG 1.1//EN" "http://www.w3.org/Graphics/SVG/1.1/DTD/svg11.dtd"><svg t="1562990463302" class="icon" viewBox="0 0 1024 1024" version="1.1" xmlns="http://www.w3.org/2000/svg" p-id="7352" xmlns:xlink="http://www.w3.org/1999/xlink" width="128" height="128"><defs><style type="text/css"></style></defs><path d="M512 0a512 512 0 1 1 0 1024A512 512 0 0 1 512 0z m62.4 725.12l182.912-186.752a37.888 37.888 0 0 0 0-52.736L574.4 298.88a36.032 36.032 0 0 0-51.712 0 37.888 37.888 0 0 0 0 52.8l120.448 122.88H292.544A36.928 36.928 0 0 0 256 512c0 20.608 16.384 37.312 36.544 37.312h350.592l-120.448 122.944a37.632 37.632 0 0 0 0 52.8 36.032 36.032 0 0 0 51.712 0z" p-id="7353" fill="#8a8a8a"></path></svg>